<?xml version="1.0" encoding="utf-8"?>
<!-- Generator: Adobe Illustrator 16.0.0, SVG Export Plug-In . SVG Version: 6.00 Build 0)  -->
<svg version="1.2" baseProfile="tiny" id="Layer_1" xmlns:sketch="http://www.bohemiancoding.com/sketch/ns"
	 xmlns="http://www.w3.org/2000/svg" xmlns:xlink="http://www.w3.org/1999/xlink" x="0px" y="0px" width="32px" height="32px"
	 viewBox="0 0 32 32" xml:space="preserve">
<title></title>
<g id="Icons_new_Arranged_Names_Color">
	<g id="_x31_00_Pressure_Reading">
		<path id="Oval_278_copy_2" fill="#FFFFFF" d="M16,28.479c-1.879,0-3.403-1.524-3.403-3.403c0-1.311,0.741-2.448,1.826-3.017
			L16,12.597l1.577,9.462c1.086,0.568,1.826,1.706,1.826,3.017C19.403,26.954,17.879,28.479,16,28.479z M29.613,19.403
			C29.613,11.885,23.518,5.79,16,5.79c-7.519,0-13.613,6.095-13.613,13.613c0,1.979,0.422,3.861,1.183,5.559
			c-0.742,0.305-1.425,0.637-2.042,0.992c-0.906-1.997-1.41-4.216-1.41-6.551C0.118,10.632,7.229,3.521,16,3.521
			c8.772,0,15.883,7.111,15.883,15.882c0,2.335-0.505,4.554-1.409,6.551c-0.617-0.355-1.301-0.688-2.043-0.992
			C29.19,23.265,29.613,21.383,29.613,19.403z"/>
		<path id="Oval_278_copy_2_1_" fill="#FFFFFF" d="M3.76,16.642l4.315,1.402l0.702-2.158l-4.316-1.402L3.76,16.642z"/>
		<path id="Oval_278_copy_2_2_" fill="#FFFFFF" d="M7.734,9.979l2.667,3.671l1.836-1.333L9.569,8.645L7.734,9.979z"/>
		<path id="Oval_278_copy_2_3_" fill="#FFFFFF" d="M14.866,6.924v4.538h2.269V6.924H14.866z"/>
		<path id="Oval_278_copy_2_4_" fill="#FFFFFF" d="M22.43,8.645l-2.667,3.671L21.6,13.65l2.666-3.671L22.43,8.645z"/>
		<path id="Oval_278_copy_2_5_" fill="#FFFFFF" d="M27.539,14.484l-4.315,1.402l0.701,2.158l4.314-1.402L27.539,14.484z"/>
		<path id="Oval_278_copy_2_6_" fill="#FFFFFF" d="M28.239,22.211l-4.314-1.402l-0.701,2.157l4.315,1.402L28.239,22.211z"/>
		<path id="Oval_278_copy_2_7_" fill="#FFFFFF" d="M4.461,24.368l4.316-1.402l-0.702-2.157L3.76,22.211L4.461,24.368z"/>
	</g>
</g>
</svg>
