<?xml version="1.0" encoding="utf-8"?>
<!-- Generator: Adobe Illustrator 16.0.0, SVG Export Plug-In . SVG Version: 6.00 Build 0)  -->
<!DOCTYPE svg PUBLIC "-//W3C//DTD SVG 1.1//EN" "http://www.w3.org/Graphics/SVG/1.1/DTD/svg11.dtd">
<svg version="1.1" id="Layer_1" xmlns:sketch="http://www.bohemiancoding.com/sketch/ns"
	 xmlns="http://www.w3.org/2000/svg" xmlns:xlink="http://www.w3.org/1999/xlink" x="0px" y="0px" width="32px" height="32px"
	 viewBox="0 0 32 32" enable-background="new 0 0 32 32" xml:space="preserve">
<title></title>
<g id="Icons_new_Arranged_Names">
	<g id="_x38_2_Thermometer_Half_Full">
		<path id="Oval_245" fill="#FFFFFF" d="M16,30c2.209,0,4-1.791,4-4c0-1.48-0.805-2.773-2-3.465V4.005C18,2.898,17.112,2,16,2
			c-1.104,0-2,0.897-2,2.005v18.53c-1.195,0.691-2,1.984-2,3.465C12,28.209,13.791,30,16,30z M16,29c-1.657,0-3-1.344-3-3
			c0-1.312,0.842-2.426,2.014-2.834C15.005,23.111,15,23.055,15,22.998v-9.996C15,12.456,15.448,12,16,12c0.557,0,1,0.449,1,1.002
			v9.996c0,0.057-0.005,0.113-0.015,0.168C18.158,23.574,19,24.688,19,26C19,27.656,17.656,29,16,29z M16,32c-3.313,0-6-2.686-6-6
			c0-1.777,0.772-3.373,2-4.473V4.005C12,1.787,13.791,0,16,0c2.205,0,4,1.793,4,4.005v17.522c1.228,1.1,2,2.695,2,4.473
			C22,29.314,19.313,32,16,32z"/>
	</g>
</g>
</svg>
